<svg id="Layer_1" data-name="Layer 1" xmlns="http://www.w3.org/2000/svg" viewBox="0 0 216 216"><defs><style>.cls-1{fill:#8c0000;}</style></defs><title>Logo only - red</title><path class="cls-1" d="M137.45,111.35h0V86.55h-1.1v-4.3c0-1.2-3.3-5.5-4.5-5.5-.9,0-1.8,1.3-2.5,1.8V64.95h0v-3.4h-5.3a14.81379,14.81379,0,0,0-3.2-8.8,15.30518,15.30518,0,0,0-7.2-5.3v-8.3c0-1.4-4-4.5-5.5-4.5-1.4,0-5.3,3.1-5.3,4.5v8.3a15.82055,15.82055,0,0,0-10.4,14h-5.8v17c-.8-.4-1.6-1.7-2.4-1.7-1.2,0-4.5,4.3-4.5,5.5v4.3h-1.1v24.8h-3.2v28.9h23.9v22.2l-15.8-15.7v-2.9h-8v6.2l31.8,31.3.1-49.1H83.55v-12.9h25.2V61.25a2.7964,2.7964,0,0,0,1.9-2.6,2.70008,2.70008,0,1,0-3.5,2.6v50.1H88.75V96.65a2.62675,2.62675,0,0,0,1.7-2.2,2.32606,2.32606,0,0,0-2.3-2.3,2.263,2.263,0,0,0-2.3,2.22539q-.00062.03731,0,.07462a2.378,2.378,0,0,0,1.6,2.2v14.7h-5.9V89.45h1.1v-7.2a1.65607,1.65607,0,0,1,.5-1.2,1.27389,1.27389,0,0,1,1.1-.5,1.70715,1.70715,0,0,1,1.7,1.7v7.2h3.8V64.85h5.6v-2.6a12.55168,12.55168,0,0,1,2.6-7.7,13.12172,13.12172,0,0,1,6.7-4.6l1-.3v-9.5s-.2-1.5,2.4-1.5,2.4,1.5,2.4,1.5v9.5l1,.3a12.85013,12.85013,0,0,1,9.3,12.3v2.7h5.5v24.6h3.9v-7.2a1.65607,1.65607,0,0,1,.5-1.2,1.27389,1.27389,0,0,1,1.1-.5,1.70715,1.70715,0,0,1,1.7,1.7v7.2h1.1v21.7h-5.5V96.75a2.62675,2.62675,0,0,0,1.7-2.2,2.32606,2.32606,0,0,0-2.3-2.3,2.263,2.263,0,0,0-2.3,2.22539q-.00062.03731,0,.07462a2.378,2.378,0,0,0,1.6,2.2v14.5h-16.4c0,.1-.2,49.7-.2,70.1l12.3-12.4,17.1-17.1v-40.5Zm.7,38.4-23.3,23.3v-53.9h7.9v34l7.4-6.8v-3.6h8v7Z"/></svg>